<?xml version="1.0" standalone="no"?>
<!DOCTYPE svg PUBLIC "-//W3C//DTD SVG 20010904//EN"
 "http://www.w3.org/TR/2001/REC-SVG-20010904/DTD/svg10.dtd">
<svg version="1.0" xmlns="http://www.w3.org/2000/svg"
 width="512.000000pt" height="512.000000pt" viewBox="0 0 512.000000 512.000000"
 preserveAspectRatio="xMidYMid meet">
<metadata>
Created by potrace 1.14, written by Peter Selinger 2001-2017
</metadata>
<g transform="translate(0.000000,512.000000) scale(0.100000,-0.100000)"
fill="#000000" stroke="none">
<path d="M572 4406 c-1 -13 5 -29 13 -36 8 -7 13 -16 10 -20 -3 -4 3 -14 13
-21 15 -13 16 -12 3 4 -7 9 -9 17 -3 17 13 0 22 -25 14 -36 -4 -5 -6 -8 -3 -7
5 3 31 -24 31 -32 0 -3 -5 -3 -12 1 -7 4 -8 3 -4 -4 4 -6 13 -9 20 -6 7 3 19
-2 26 -10 7 -9 17 -13 22 -10 6 4 5 -2 -1 -14 -6 -11 -16 -22 -23 -24 -9 -3
-9 -6 0 -12 7 -4 12 -2 12 3 0 6 5 11 10 11 12 0 9 -32 -3 -41 -5 -3 -2 -9 7
-12 8 -3 18 -1 22 5 4 6 3 8 -3 5 -5 -3 -10 0 -10 8 0 12 4 12 19 -2 12 -10
15 -20 9 -26 -10 -10 -2 -23 31 -54 13 -13 15 -21 6 -37 -10 -18 -9 -19 3 -9
11 9 18 8 32 -2 16 -11 16 -13 2 -19 -11 -4 -14 -2 -9 6 4 7 3 8 -5 4 -8 -6
-9 -12 -2 -20 6 -7 9 -16 6 -19 -3 -4 -2 -5 2 -2 3 3 13 -1 22 -7 10 -8 8 -3
-4 12 l-20 25 22 -19 c19 -16 21 -22 10 -34 -10 -13 -9 -14 2 -7 11 6 13 4 8
-8 -4 -11 -2 -14 7 -11 7 3 19 -2 26 -11 7 -8 9 -15 6 -15 -4 0 0 -7 9 -16 11
-12 13 -20 5 -29 -7 -9 -5 -16 7 -26 16 -13 17 -12 4 4 -12 15 -11 17 2 17 11
0 14 -7 11 -24 -3 -21 -1 -24 16 -21 12 2 18 0 15 -6 -4 -5 -11 -7 -16 -4 -14
9 -11 -5 5 -20 7 -8 17 -11 21 -7 5 4 5 1 1 -6 -6 -10 -11 -10 -22 -1 -8 6
-14 8 -14 4 0 -17 35 -33 47 -23 17 14 16 0 -1 -17 -10 -11 -16 -11 -27 -2 -8
7 -3 0 10 -15 25 -29 43 -40 21 -13 -7 9 -8 15 -2 15 14 0 23 -27 15 -47 -4
-11 2 -9 15 7 20 24 26 11 8 -18 -4 -7 -5 -16 -2 -19 3 -4 6 -1 6 5 0 7 8 12
18 12 14 0 15 -2 2 -10 -10 -6 -11 -10 -2 -10 6 0 12 -9 12 -20 0 -11 7 -20
16 -20 8 0 12 -4 9 -10 -3 -5 -1 -10 5 -10 6 0 8 -5 4 -12 -5 -8 -2 -9 11 -4
15 5 16 4 5 -9 -10 -12 -10 -15 0 -15 9 0 10 -3 1 -14 -9 -11 -6 -13 15 -10
14 1 23 0 20 -3 -3 -4 0 -13 6 -21 7 -8 13 -20 15 -28 2 -8 4 -21 6 -29 2 -8
7 -18 12 -22 4 -4 5 -3 1 4 -3 6 -1 15 5 19 8 4 9 3 5 -4 -4 -6 2 -19 13 -28
15 -13 17 -22 10 -41 -5 -14 -5 -23 1 -23 6 0 10 5 10 10 0 6 4 10 8 10 5 0 7
-15 6 -32 -2 -32 -2 -32 13 -13 10 12 14 14 10 4 -2 -8 1 -26 9 -40 7 -13 13
-20 14 -16 0 4 9 3 21 -3 18 -10 19 -10 10 8 -7 14 -7 19 4 19 8 0 12 -4 9 -8
-2 -4 0 -11 6 -14 6 -4 10 -3 9 2 -4 21 2 24 19 12 15 -13 16 -12 3 4 -12 15
-12 20 -1 30 10 10 11 9 5 -2 -6 -10 -4 -12 4 -7 7 5 10 14 7 22 -3 8 -1 14 4
14 6 0 10 -5 10 -11 0 -5 5 -7 10 -4 6 4 8 10 5 15 -3 5 -1 11 5 15 5 3 10 0
11 -7 0 -7 4 -3 9 10 5 12 15 23 22 23 7 1 20 2 28 3 9 0 14 9 12 20 -2 10 1
15 7 12 5 -4 18 3 28 14 12 12 28 18 41 15 13 -2 20 0 17 6 -4 5 -10 7 -15 4
-5 -3 -11 -1 -14 4 -3 4 4 8 17 7 13 -1 21 4 20 12 -2 6 4 12 13 12 8 0 13 -4
9 -9 -3 -5 -1 -13 5 -16 6 -4 9 -1 8 7 -2 7 2 12 8 11 7 -1 10 6 7 17 -3 12 0
20 6 20 7 0 9 -5 5 -12 -4 -7 -3 -8 5 -4 6 4 9 11 6 16 -3 5 0 10 7 13 7 2 5
3 -5 1 -16 -2 -16 0 -5 14 7 9 17 20 23 24 5 4 0 6 -12 5 -12 0 -19 -5 -17 -9
9 -13 -3 -9 -15 6 -9 11 -9 16 0 22 8 5 9 3 4 -6 -5 -9 -4 -11 4 -6 6 4 9 12
5 17 -3 5 -10 6 -16 3 -7 -5 -9 -1 -5 9 3 8 -1 21 -9 27 -8 7 -14 20 -15 29 0
11 -2 12 -6 3 -3 -7 2 -21 12 -32 13 -14 14 -20 3 -26 -7 -4 -10 -4 -6 1 9 9
-11 37 -21 30 -4 -2 -5 9 -3 26 2 17 0 29 -7 29 -6 0 -8 -8 -4 -17 5 -15 3
-14 -10 2 -8 11 -13 24 -10 29 3 5 -5 18 -18 28 -13 11 -18 16 -10 12 9 -5 12
-3 7 4 -4 7 -2 12 5 12 7 0 10 3 7 6 -4 3 -16 1 -27 -6 -14 -7 -21 -7 -21 0 0
5 6 10 13 10 6 0 0 10 -15 21 -16 11 -28 30 -28 41 0 12 -8 27 -17 35 -10 7
-13 12 -8 11 6 -2 11 2 12 7 1 6 -5 9 -13 7 -8 -2 -14 3 -14 10 0 9 -3 9 -10
-2 -8 -12 -10 -9 -8 10 2 14 -2 24 -8 23 -6 -1 -11 8 -11 20 -1 41 -3 46 -24
52 -17 6 -18 9 -7 23 8 11 4 10 -11 -3 l-24 -20 8 25 c6 20 5 23 -5 13 -10 -9
-17 -7 -32 10 -11 12 -17 16 -13 10 3 -7 1 -13 -4 -13 -6 0 -11 6 -11 14 0 15
-16 16 -40 1 -9 -5 -6 1 5 15 l20 23 -22 -12 c-16 -8 -24 -8 -29 1 -5 7 -3 8
6 3 9 -5 11 -4 6 4 -6 9 -11 9 -24 -1 -13 -11 -15 -10 -9 4 3 10 1 20 -5 24
-7 4 -8 3 -4 -4 10 -17 -19 -15 -33 1 -6 8 -10 16 -8 18 1 2 0 3 -2 2 -2 -1
-16 6 -31 17 -16 11 -32 20 -37 20 -4 0 5 -9 20 -19 18 -11 25 -21 18 -25 -6
-4 -11 -3 -11 2 0 5 -13 15 -30 22 -16 7 -30 19 -30 26 0 8 -4 14 -10 14 -5 0
-7 -8 -4 -17 5 -14 4 -15 -4 -4 -5 7 -15 10 -21 7 -6 -4 -14 0 -17 8 -3 9 -11
13 -17 9 -6 -3 -7 -1 -3 6 4 6 11 9 16 6 5 -3 11 -1 14 4 3 4 -2 8 -12 8 -54
0 -62 3 -63 26 0 12 -3 16 -6 10 -2 -7 -9 -13 -15 -13 -6 0 -8 7 -5 14 4 10 1
13 -8 9 -8 -3 -12 -10 -9 -15 4 -6 -5 -3 -18 6 -14 9 -28 13 -33 9 -4 -5 -5
-3 -2 3 10 17 -19 39 -29 23 -5 -8 -3 -9 6 -4 9 6 11 4 6 -4 -8 -12 -20 -7
-22 10 -1 5 -2 14 -3 19 0 6 -7 10 -15 10 -8 0 -17 6 -19 13 -4 10 -6 10 -6 0
-1 -7 -7 -13 -15 -13 -9 0 -13 7 -11 19 4 20 -9 22 -34 7 -11 -7 -13 -5 -8 8
5 14 3 15 -13 6 -13 -7 -21 -7 -26 2 -5 7 -3 8 7 3 12 -8 12 -6 0 8 -7 9 -17
14 -23 11 -5 -3 -14 -1 -21 5 -10 7 -13 4 -15 -13z m32 -7 c8 7 12 4 12 -9 0
-10 -5 -18 -11 -17 -12 2 -25 19 -24 32 0 6 3 4 6 -3 3 -9 9 -10 17 -3z m526
-260 c0 -6 -4 -7 -10 -4 -5 3 -10 11 -10 16 0 6 5 7 10 4 6 -3 10 -11 10 -16z
m165 -79 c-3 -5 -12 -10 -18 -10 -7 0 -6 4 3 10 19 12 23 12 15 0z m83 -53 c8
-9 8 -17 0 -27 -8 -12 -9 -12 -4 2 3 10 -2 22 -12 27 -9 6 -12 11 -6 11 6 0
16 -6 22 -13z m107 -597 c3 -6 -1 -7 -9 -4 -18 7 -21 14 -7 14 6 0 13 -4 16
-10z"/>
<path d="M4136 4388 c4 -13 -1 -16 -36 -14 -27 2 -39 -1 -36 -9 2 -6 -6 -11
-18 -12 -11 0 -15 1 -8 4 24 9 12 18 -23 17 -19 -1 -38 2 -41 7 -3 5 -11 9
-17 9 -7 0 -6 -4 3 -10 13 -8 12 -10 -2 -10 -10 0 -18 -8 -18 -17 -1 -11 -6
-7 -14 12 -10 25 -13 26 -19 12 -5 -12 -3 -16 5 -11 7 4 8 3 4 -5 -6 -9 -11
-9 -24 1 -13 11 -15 11 -10 -3 5 -13 2 -16 -13 -12 -10 3 -19 10 -19 17 0 6
-4 4 -9 -4 -6 -8 -7 -19 -3 -25 3 -5 -7 -2 -22 9 -28 18 -29 18 -22 0 6 -17 6
-17 -12 -1 -21 19 -32 22 -32 6 0 -5 5 -7 12 -3 7 4 8 3 4 -4 -5 -9 -14 -7
-32 4 -13 9 -24 12 -24 6 0 -6 6 -12 13 -15 6 -3 2 -4 -10 -4 -12 1 -20 4 -17
8 2 4 -7 2 -20 -4 -13 -7 -23 -14 -21 -18 3 -3 -8 -5 -23 -3 -15 1 -27 3 -27
4 0 1 -16 3 -36 4 -29 1 -36 -2 -31 -14 4 -12 2 -13 -8 -3 -11 10 -16 9 -27
-5 -8 -9 -12 -11 -8 -4 3 6 2 12 -2 12 -5 0 -15 -6 -22 -12 -9 -8 -11 -8 -8
-2 4 7 0 15 -9 18 -9 4 -13 2 -8 -5 4 -8 -1 -9 -17 -5 l-24 7 24 -14 c19 -12
21 -15 7 -20 -8 -3 -18 -2 -21 3 -4 6 -11 10 -16 10 -6 0 -8 -4 -4 -9 3 -5 1
-13 -5 -16 -6 -4 -9 -1 -8 7 4 16 -34 12 -44 -5 -5 -8 -9 -5 -14 6 -6 16 -8
15 -28 -6 -12 -13 -28 -21 -35 -19 -9 3 -11 0 -6 -9 5 -8 -2 -5 -14 5 -22 20
-22 20 -15 0 7 -17 6 -17 -9 -5 -15 12 -17 12 -12 0 3 -8 -4 -20 -16 -27 -12
-8 -18 -9 -14 -3 10 18 -7 12 -22 -6 -14 -17 -14 -17 -9 1 5 15 4 17 -7 8 -8
-7 -17 -9 -20 -5 -4 3 -7 -1 -7 -10 0 -9 -5 -19 -12 -23 -8 -5 -9 -2 -5 9 3 9
1 19 -5 23 -7 4 -8 3 -4 -4 6 -11 -13 -17 -37 -13 -5 1 -5 -3 -2 -9 4 -6 14
-9 22 -6 8 3 12 2 9 -3 -6 -10 -69 -7 -86 4 -16 10 -12 -2 8 -21 16 -17 16
-18 0 -11 -11 4 -18 2 -18 -5 0 -6 -6 -5 -17 3 -13 11 -15 11 -9 1 6 -11 1
-12 -23 -9 -17 3 -33 1 -37 -4 -3 -5 -10 -7 -15 -3 -12 7 -7 -19 5 -27 5 -4
-7 -6 -25 -6 -19 1 -37 6 -41 12 -5 6 -8 5 -8 -3 0 -7 -4 -11 -9 -7 -6 3 -8
-3 -6 -14 3 -15 0 -18 -12 -14 -10 4 -14 2 -10 -4 3 -5 0 -10 -8 -10 -8 0 -12
4 -9 8 2 4 -1 11 -7 15 -8 4 -9 3 -5 -4 4 -7 3 -12 -3 -12 -5 0 -8 -9 -6 -20
3 -17 1 -19 -16 -10 -12 7 -19 7 -19 1 0 -5 -10 -8 -22 -6 -16 4 -19 2 -10 -7
7 -7 12 -17 12 -22 0 -6 -5 -4 -11 4 -8 11 -12 12 -16 3 -2 -7 -9 -13 -14 -13
-6 0 -7 6 -3 13 6 9 4 9 -8 -1 -9 -7 -18 -9 -20 -5 -3 4 -3 3 -2 -4 4 -17 -13
-26 -19 -11 -3 7 -6 2 -6 -12 -1 -18 -4 -21 -10 -12 -7 11 -11 11 -24 -2 -17
-17 -29 -21 -24 -8 1 4 -2 7 -8 7 -5 0 -9 -11 -7 -25 1 -14 -1 -19 -4 -12 -9
19 -27 14 -20 -5 6 -14 4 -14 -14 2 -16 14 -21 16 -18 5 2 -8 8 -19 13 -23 6
-5 -2 -7 -17 -4 -20 3 -25 0 -20 -11 4 -12 -1 -14 -24 -9 -16 3 -23 4 -16 1
17 -8 15 -27 -2 -21 -9 4 -16 -3 -20 -15 -4 -17 -8 -19 -20 -9 -11 9 -16 9
-22 0 -4 -8 -3 -9 4 -5 7 4 12 3 12 -2 0 -6 -7 -13 -16 -16 -22 -8 -26 -8 -19
4 3 6 4 10 0 10 -3 0 -10 -12 -15 -26 -8 -20 -13 -24 -24 -15 -15 13 -27 5
-19 -15 3 -9 -1 -14 -12 -14 -9 0 -13 5 -10 10 3 6 1 10 -4 10 -6 0 -11 -9
-11 -20 0 -11 -4 -20 -10 -20 -5 0 -7 -8 -4 -17 5 -15 4 -15 -4 -3 -7 9 -7 19
-2 25 7 8 5 12 -5 12 -7 0 -13 -3 -13 -6 1 -3 -2 -14 -7 -24 -6 -15 -10 -15
-23 -5 -10 8 -13 8 -9 2 4 -7 -3 -14 -19 -18 -18 -5 -24 -11 -20 -23 5 -12 4
-13 -7 -5 -14 12 -27 6 -27 -12 0 -6 4 -5 9 2 7 11 9 11 14 -1 4 -10 -1 -14
-16 -13 -12 0 -22 -5 -22 -11 0 -7 -4 -13 -8 -14 -16 -1 -17 8 -2 21 18 15 20
30 3 30 -6 0 -8 -3 -5 -7 10 -9 -14 -34 -26 -26 -6 3 -7 1 -3 -5 4 -7 2 -12
-5 -12 -6 0 -9 -8 -6 -20 4 -17 2 -18 -14 -9 -11 6 -17 15 -13 22 4 7 3 8 -2
4 -5 -5 -9 -12 -9 -15 0 -4 -8 -17 -17 -30 -11 -17 -17 -20 -21 -10 -5 11 -11
-24 -8 -44 0 -4 -6 -5 -14 -2 -8 4 -15 1 -15 -5 0 -6 -8 -8 -17 -4 -10 3 -15
3 -11 -2 10 -11 -46 -55 -75 -57 -14 -1 -23 -6 -21 -10 3 -5 10 -6 15 -3 5 4
9 1 9 -4 0 -10 -14 -15 -33 -12 -5 1 -11 -8 -14 -19 -3 -11 -11 -20 -19 -20
-8 0 -11 -6 -8 -15 4 -10 0 -15 -11 -15 -9 0 -14 4 -10 9 3 5 1 12 -3 15 -5 3
-8 -10 -7 -28 1 -27 -2 -33 -19 -32 -13 1 -22 -7 -26 -24 -4 -17 -8 -21 -14
-12 -4 6 -12 12 -17 12 -6 0 -3 -7 5 -16 22 -21 20 -27 -3 -14 -14 7 -22 7
-27 -2 -4 -6 -3 -8 3 -5 6 4 14 0 17 -9 3 -8 2 -12 -4 -9 -6 4 -17 0 -25 -9
-18 -17 -20 -30 -3 -20 7 4 8 3 4 -5 -6 -9 -11 -9 -24 1 -13 11 -15 10 -10 -8
4 -16 1 -21 -11 -20 -10 1 -15 -6 -15 -17 2 -15 -1 -16 -14 -5 -13 11 -15 10
-9 -5 6 -15 4 -16 -14 -6 -16 8 -20 8 -15 0 4 -6 -3 -15 -16 -20 -14 -6 -17
-10 -7 -10 8 -1 20 4 25 9 7 7 11 6 11 -4 0 -8 -4 -13 -8 -10 -4 2 -10 0 -14
-6 -4 -6 -11 -7 -17 -4 -7 4 -8 2 -4 -4 4 -7 3 -19 -2 -28 -8 -15 -10 -15 -15
0 -5 11 -3 15 5 10 7 -4 8 -3 4 5 -12 19 -25 2 -20 -27 l4 -27 -15 25 -15 25
5 -29 c3 -24 1 -27 -15 -23 -17 4 -18 2 -8 -16 10 -20 10 -21 -6 -8 -14 12
-16 12 -10 -4 6 -14 4 -16 -6 -10 -10 6 -12 4 -6 -10 6 -16 4 -16 -10 -4 -16
13 -16 12 -5 -10 7 -13 8 -21 3 -17 -6 3 -13 2 -17 -4 -3 -5 -11 -10 -18 -10
-6 0 -3 6 8 13 14 11 15 16 5 22 -8 5 -11 4 -7 -2 4 -6 0 -13 -8 -17 -8 -3
-12 -12 -9 -21 6 -15 -10 -20 -46 -15 -11 1 -10 -2 4 -13 17 -13 17 -14 2 -20
-11 -5 -15 -3 -10 5 4 7 3 8 -4 4 -6 -4 -9 -13 -6 -20 3 -8 0 -17 -6 -21 -8
-5 -7 -11 2 -23 12 -15 11 -16 -4 -4 -12 10 -22 11 -35 3 -10 -6 -13 -11 -6
-11 13 0 12 -25 -2 -37 -4 -4 -5 -3 -2 3 4 7 0 14 -7 17 -10 4 -13 0 -11 -14
4 -18 2 -19 -12 -7 -10 8 -14 8 -10 1 4 -7 0 -16 -10 -21 -14 -9 -15 -12 -4
-26 12 -14 11 -16 -4 -10 -14 6 -16 4 -10 -6 5 -8 4 -11 -3 -6 -6 3 -16 -7
-23 -23 -9 -20 -16 -26 -21 -18 -7 11 -13 -12 -9 -35 0 -5 -4 -8 -10 -8 -8 0
-7 -6 2 -17 11 -15 11 -16 -1 -5 -21 18 -33 15 -27 -7 4 -15 0 -19 -14 -16
-25 5 -34 -12 -17 -32 7 -9 8 -14 2 -10 -15 9 -36 -37 -22 -51 6 -6 6 -12 -1
-17 -6 -3 -11 -3 -10 2 3 20 -2 22 -20 6 -11 -9 -18 -25 -16 -35 3 -15 1 -17
-8 -9 -10 7 -13 5 -14 -11 -2 -24 -22 -40 -38 -31 -5 4 -1 -4 9 -16 19 -21 19
-21 1 -15 -14 6 -16 4 -11 -7 4 -8 1 -5 -8 5 -14 18 -15 17 -13 -17 3 -34 -8
-44 -26 -22 -5 6 -7 4 -6 -5 3 -28 -1 -41 -10 -35 -5 3 -13 0 -17 -6 -4 -7 -3
-9 3 -6 6 4 13 0 17 -8 3 -8 1 -17 -4 -20 -6 -4 -10 -2 -10 3 0 5 -6 9 -14 9
-12 0 -11 -5 2 -26 16 -24 16 -25 0 -13 -15 12 -17 11 -13 -8 3 -18 2 -20 -10
-10 -8 7 -16 9 -16 4 -1 -5 -2 -13 -4 -19 -1 -5 -3 -15 -3 -21 -1 -7 -12 -15
-24 -18 -22 -6 -22 -7 -5 -20 16 -12 16 -14 2 -20 -9 -3 -13 -10 -10 -16 3 -5
1 -10 -4 -10 -14 0 -14 13 1 28 8 8 8 12 1 12 -13 0 -25 -28 -17 -41 3 -5 0
-9 -5 -9 -6 0 -11 -5 -11 -11 0 -5 6 -7 13 -4 6 4 2 -2 -10 -12 -12 -10 -22
-28 -21 -40 2 -17 5 -19 15 -11 10 8 10 14 2 24 -19 23 -2 16 22 -8 21 -23 21
-23 10 -1 -15 30 -14 38 5 22 13 -10 17 -10 24 1 5 9 4 20 -3 29 -10 12 -9 12
13 1 22 -12 24 -12 12 2 -11 14 -9 16 18 14 17 -1 34 2 37 7 3 6 1 7 -4 4 -6
-4 -13 -1 -16 6 -3 9 4 12 24 11 17 -1 26 2 23 8 -3 5 -13 7 -21 4 -8 -3 -11
-1 -8 4 4 6 16 8 28 6 13 -2 32 3 42 11 17 13 17 15 2 10 -21 -8 -23 9 -1 17
8 3 12 11 8 17 -4 8 -3 9 5 5 6 -4 18 -3 25 3 7 6 21 9 30 5 12 -5 15 -2 9 12
-5 13 -3 16 10 11 16 -6 22 3 18 26 -1 5 3 6 9 2 5 -3 10 -1 10 6 0 7 3 9 6 6
4 -4 1 -13 -5 -21 -9 -11 -9 -16 0 -22 7 -4 9 -3 6 3 -4 6 0 16 8 23 8 7 15
20 15 29 0 13 2 14 9 1 6 -8 7 -18 4 -24 -3 -5 -1 -6 6 -2 6 4 9 12 6 17 -4 5
-1 17 4 26 6 10 11 12 11 6 0 -7 5 -13 11 -13 6 0 9 6 6 14 -4 10 0 14 13 11
12 -2 17 1 14 10 -3 7 0 16 7 21 8 4 10 3 5 -4 -4 -7 -2 -12 3 -12 6 0 11 7
11 15 0 8 5 15 11 15 5 0 7 6 3 13 -5 8 -2 8 9 -2 11 -8 17 -9 17 -3 0 7 8 9
18 5 15 -6 16 -5 2 12 -14 17 -13 18 4 12 14 -6 17 -4 12 10 -6 15 -5 16 5 6
16 -16 33 -17 23 -1 -5 8 -2 9 10 5 10 -4 15 -3 11 3 -3 6 -1 10 5 10 6 0 8 4
5 10 -3 6 1 7 10 4 13 -5 13 -9 3 -23 -12 -14 -11 -15 5 -2 13 10 14 17 7 26
-8 10 -8 15 1 21 8 4 9 3 5 -4 -4 -7 -1 -12 9 -12 9 0 13 5 10 10 -3 6 -1 10
4 10 6 0 11 -5 11 -12 0 -6 3 -8 6 -5 4 4 1 14 -7 23 -13 16 -12 16 11 4 24
-13 24 -12 10 5 -14 17 -14 17 6 7 19 -10 21 -9 18 13 -1 14 2 23 7 19 5 -3 7
-9 4 -14 -6 -10 15 -8 33 3 7 5 10 12 7 16 -8 15 29 38 58 37 16 -1 31 2 33 6
3 5 10 5 16 2 7 -4 8 -2 4 4 -4 7 -2 12 4 12 6 0 8 5 5 10 -3 6 -1 10 5 10 6
0 8 4 5 10 -3 5 0 7 8 4 8 -3 17 1 20 9 4 10 18 14 40 13 20 -1 34 1 32 4 -2
3 3 11 11 18 8 7 14 10 14 6 0 -4 9 1 20 11 15 13 20 15 20 4 0 -7 8 -2 17 11
10 14 17 29 15 33 -1 4 6 3 17 -3 25 -13 42 -13 18 1 -9 6 -15 15 -11 20 3 6
12 5 22 -3 10 -8 13 -9 9 -1 -4 6 -3 14 3 18 5 3 10 2 10 -2 0 -5 9 -9 19 -9
16 0 17 3 8 14 -9 11 -7 13 9 10 13 -2 19 2 18 15 -2 14 1 15 12 6 8 -6 11
-16 7 -22 -3 -6 -1 -7 6 -3 6 4 9 12 6 17 -6 9 7 13 35 10 9 -1 11 1 5 6 -17
14 -14 29 5 30 13 1 17 -3 13 -14 -5 -12 -1 -11 15 3 12 10 22 25 22 34 0 9 3
11 8 5 4 -5 13 -11 21 -13 11 -2 12 0 4 10 -9 10 -6 13 13 14 14 1 21 -2 17
-9 -3 -6 -1 -7 6 -3 9 6 9 11 0 22 -10 12 -9 13 6 8 13 -5 16 -4 11 4 -4 7 -3
12 3 12 5 0 12 -6 14 -12 4 -10 6 -10 6 0 1 6 6 12 12 12 6 0 8 -7 5 -16 -4
-9 -2 -13 5 -8 6 3 9 17 7 29 -4 16 -1 22 9 18 7 -3 11 -8 8 -12 -2 -4 2 -8
10 -8 11 0 11 5 4 19 -10 19 -10 19 18 1 27 -17 28 -17 13 2 -8 10 -10 16 -3
12 6 -4 14 -3 18 2 3 6 12 8 20 5 8 -4 12 -11 8 -17 -3 -6 -1 -7 6 -3 9 6 9
11 -1 24 -11 13 -10 14 7 5 18 -9 53 -10 59 -1 1 2 7 14 14 28 11 24 12 24 6
2 -5 -22 -4 -23 15 -13 12 7 21 14 21 17 0 3 -5 2 -12 -2 -7 -5 -8 -3 -3 5 5
9 10 10 18 2 6 -6 16 -11 21 -11 7 0 6 4 -1 8 -8 5 -9 13 -3 22 6 8 10 10 10
4 0 -7 7 -15 16 -18 10 -4 13 -2 8 6 -5 7 -2 9 9 5 8 -3 21 1 28 9 10 12 9 13
-4 9 -8 -4 -17 -2 -20 2 -3 5 6 9 21 8 15 0 30 7 34 15 6 13 7 13 7 -2 1 -11
7 -15 22 -11 13 4 18 11 14 22 -3 8 -3 12 1 8 4 -4 13 -2 21 4 9 8 13 8 13 0
0 -6 11 -10 24 -9 19 2 23 6 16 18 -6 12 -5 17 5 17 8 0 12 -4 9 -9 -3 -4 0
-8 5 -8 6 0 11 5 11 10 0 6 5 10 11 10 5 0 8 -4 5 -8 -3 -5 1 -9 9 -9 8 0 12
4 9 8 -6 10 33 22 45 14 5 -3 13 0 17 6 4 8 3 9 -4 5 -18 -11 -14 0 5 15 11
10 14 10 9 2 -4 -7 -2 -13 3 -13 6 0 11 7 11 15 0 8 4 15 10 15 5 0 7 -8 4
-17 -5 -16 -4 -16 8 -2 7 9 18 14 25 12 6 -2 24 4 40 14 15 10 24 13 20 7 -4
-7 0 -14 8 -18 8 -3 17 0 21 6 4 6 3 8 -4 4 -6 -4 -10 1 -9 13 0 11 5 17 11
14 15 -10 86 -9 86 0 0 5 -7 6 -16 3 -9 -3 -12 -2 -9 5 4 5 15 7 25 4 10 -3
21 -1 25 5 3 6 11 8 16 5 5 -4 9 0 9 7 1 7 7 2 14 -11 11 -20 14 -21 19 -7 5
12 3 15 -6 10 -6 -4 -8 -3 -4 1 15 17 39 14 33 -3 -4 -10 3 -6 15 8 11 14 18
20 16 15 -3 -6 -2 -17 4 -25 7 -12 9 -9 9 9 0 24 0 24 21 5 22 -19 22 -19 9 5
-6 13 -7 21 -2 17 6 -3 13 -2 17 4 3 5 11 10 18 10 6 0 2 -7 -9 -15 -19 -15
-19 -15 1 -8 11 4 26 14 33 22 10 14 11 14 6 -3 -6 -16 -4 -17 14 -7 12 7 22
9 22 5 0 -3 8 0 17 7 15 12 16 12 8 -1 -6 -12 -5 -13 6 -2 18 17 27 15 32 -5
4 -17 5 -17 6 0 0 9 8 17 17 17 9 0 13 5 9 13 -4 6 3 1 14 -12 12 -13 21 -18
21 -11 0 9 3 10 14 1 10 -9 15 -8 19 2 4 10 -2 13 -19 11 -13 -1 -22 2 -19 6
7 12 48 8 57 -4 5 -7 12 -6 20 3 11 12 10 12 -2 6 -13 -8 -13 -7 -1 9 13 15
16 15 29 2 14 -13 17 -13 27 1 11 15 14 15 25 -4 13 -20 13 -20 37 6 22 23 23
24 13 4 -7 -16 -7 -23 0 -23 5 0 10 5 10 11 0 8 6 7 17 -2 9 -8 14 -9 10 -3
-4 7 0 15 9 18 8 3 13 2 10 -3 -7 -11 14 -20 32 -14 6 3 9 10 5 16 -4 7 1 6
10 -2 14 -11 17 -11 17 0 0 11 2 11 9 -1 6 -8 7 -19 3 -25 -3 -5 2 -4 11 4 20
16 23 25 5 15 -7 -4 -9 -3 -5 1 13 14 118 13 113 -1 -5 -12 30 -11 42 0 2 3
14 1 24 -5 15 -8 23 -8 32 1 8 8 7 10 -5 5 -10 -4 -19 -3 -22 2 -7 11 60 10
70 -1 5 -4 2 -6 -6 -4 -7 2 -15 -3 -17 -10 -1 -7 0 -8 2 -3 3 5 17 7 31 5 24
-5 25 -3 12 12 -13 16 -12 16 8 4 12 -8 20 -18 17 -22 -3 -4 2 -5 10 -2 9 3
13 10 10 15 -3 5 2 6 10 3 9 -3 16 -14 17 -23 0 -12 2 -12 9 4 7 17 9 17 9 3
1 -10 6 -18 12 -18 5 0 8 4 5 8 -3 5 1 9 9 9 8 0 12 -4 9 -8 -2 -4 1 -11 7
-15 8 -4 9 -3 5 4 -8 13 6 17 18 5 10 -11 37 -12 30 -2 -3 5 -1 9 5 9 5 0 11
-5 13 -11 3 -9 10 -9 26 0 18 10 22 9 22 -4 0 -10 -5 -13 -12 -9 -7 5 -8 3 -3
-6 6 -10 13 -7 27 11 11 13 17 19 14 12 -10 -18 18 -22 32 -4 10 13 10 11 2
-14 -11 -29 -11 -29 10 -10 11 10 23 15 27 12 3 -4 2 -7 -4 -7 -6 0 -14 -7
-17 -16 -5 -14 -4 -15 9 -4 11 9 15 9 15 1 0 -7 5 -9 10 -6 6 4 8 10 5 15 -3
5 4 7 15 4 11 -2 29 -6 40 -8 11 -3 25 -8 32 -12 6 -4 8 -3 4 4 -3 6 -2 13 4
17 6 4 7 12 3 18 -4 7 1 6 10 -2 15 -12 17 -12 11 4 -6 14 -4 16 7 10 8 -5 5
2 -6 15 -11 13 -15 21 -10 17 6 -3 17 -2 25 4 12 6 12 9 2 9 -10 0 -9 4 2 16
9 8 14 19 11 24 -3 5 -1 10 5 12 5 1 11 13 13 25 4 29 13 38 23 22 4 -7 3 -10
-2 -6 -6 3 -11 -4 -11 -16 -2 -22 -2 -22 10 -2 11 20 13 25 16 46 0 5 6 7 13
3 6 -4 8 -3 4 4 -3 6 -2 13 3 17 6 3 8 12 5 20 -4 8 -11 12 -17 8 -6 -4 -7 -1
-3 6 5 7 13 10 20 8 6 -3 17 2 24 9 7 8 9 14 3 14 -5 0 -8 8 -6 18 1 9 8 16
13 15 7 -2 9 4 5 14 -4 10 -2 14 4 10 5 -3 10 0 10 8 0 8 -4 12 -8 10 -10 -7
-5 22 6 32 4 4 5 2 0 -6 -5 -9 -3 -12 6 -9 8 3 13 11 12 17 -2 6 2 11 8 11 5
0 7 5 4 10 -4 6 -11 7 -17 4 -7 -4 -8 -2 -4 5 4 6 12 8 18 5 8 -5 9 -1 4 11
-5 15 -4 16 9 5 13 -11 14 -10 10 3 -4 8 -1 18 4 22 6 3 9 11 6 16 -4 5 2 9
12 9 10 0 14 3 8 8 -19 13 0 66 21 58 7 -3 16 0 20 6 5 7 2 8 -6 3 -10 -6 -12
-4 -7 7 3 9 0 21 -6 27 -9 9 -8 11 5 6 14 -5 16 -2 13 15 -4 19 -2 20 12 8 15
-12 15 -11 3 12 -10 21 -10 23 1 13 7 -7 17 -13 23 -13 5 0 -2 10 -15 21 l-24
21 23 -7 c16 -5 22 -3 20 7 -2 7 3 12 10 10 8 -1 11 2 7 8 -3 6 -10 8 -15 5
-5 -3 -12 -1 -15 5 -4 6 -1 9 7 8 7 -2 12 2 11 9 -2 7 4 10 12 7 8 -4 12 -11
8 -17 -3 -6 -1 -7 5 -3 9 5 8 12 0 26 -10 15 -10 22 0 32 11 11 12 9 7 -7 -6
-16 -5 -17 4 -5 7 11 6 19 -6 32 -10 11 -12 18 -5 18 7 0 12 -4 12 -8 0 -5 7
-9 15 -9 12 0 12 3 2 16 -10 12 -9 13 2 6 11 -6 13 -4 8 8 -3 10 -3 17 1 17 4
0 9 10 9 22 1 13 9 28 18 34 17 13 21 29 4 18 -8 -4 -8 0 0 15 7 11 17 21 24
21 8 0 7 -4 -3 -11 -10 -7 -11 -9 -2 -7 8 2 13 8 13 13 0 6 8 18 16 28 10 10
12 17 5 17 -7 0 -12 -4 -12 -10 0 -5 -8 -10 -17 -10 -15 0 -15 1 2 13 12 9 15
19 10 28 -7 11 -5 11 10 -1 17 -14 18 -13 12 4 -5 13 -3 17 6 13 8 -3 13 3 13
18 0 13 -3 22 -6 20 -11 -7 -60 31 -53 41 5 5 -2 1 -14 -10 -13 -11 -27 -15
-35 -10 -7 5 -21 7 -30 6 -10 -2 -18 3 -18 10 0 8 -5 6 -11 -5 -6 -10 -15 -14
-22 -10 -7 4 -21 8 -32 8 -11 1 -19 6 -18 12 1 6 -4 14 -13 17 -8 3 -12 2 -9
-4 3 -6 1 -10 -4 -10 -6 0 -11 5 -11 12 0 6 -3 8 -7 5 -3 -4 -13 -1 -21 6 -10
8 -13 8 -9 1 4 -7 0 -15 -9 -18 -10 -4 -13 -2 -8 6 5 7 -1 9 -19 6 -15 -3 -29
0 -32 6 -3 6 -3 1 -1 -12 2 -12 0 -20 -5 -16 -5 3 -9 12 -9 21 0 14 -3 13 -22
-3 -19 -16 -20 -16 -9 -1 12 15 12 17 -2 12 -9 -4 -21 3 -31 17 -9 12 -16 17
-16 11 0 -7 5 -15 10 -18 6 -3 10 -11 10 -17 0 -7 -4 -7 -12 -1 -7 6 -21 9
-30 8 -10 -2 -18 1 -18 7 0 6 -7 4 -16 -3 -15 -12 -16 -11 -9 10 5 16 4 21 -4
17 -6 -4 -11 -14 -11 -22 0 -8 -5 -14 -11 -14 -5 0 -7 6 -3 13 6 9 5 9 -7 0
-19 -15 -30 -17 -38 -5 -6 11 -25 15 -54 13 -11 -1 -15 -6 -11 -13 4 -7 3 -8
-5 -4 -6 4 -9 11 -6 16 3 5 1 11 -4 14 -5 4 -12 2 -16 -4 -3 -5 -13 -10 -21
-10 -8 0 -12 5 -9 10 3 6 2 10 -4 10 -5 0 -12 -6 -14 -12 -4 -10 -8 -9 -16 2
-9 13 -12 13 -23 1 -11 -11 -11 -13 1 -6 9 5 12 4 7 -3 -4 -6 3 -9 19 -7 14 1
27 -1 30 -5 2 -4 -9 -7 -26 -6 -19 1 -37 10 -50 26 -11 14 -17 18 -13 8z m134
-12 c0 -2 -8 -10 -17 -17 -16 -13 -17 -12 -4 4 13 16 21 21 21 13z m-140 -16
c0 -5 -5 -10 -11 -10 -5 0 -7 5 -4 10 3 6 8 10 11 10 2 0 4 -4 4 -10z m-560
-50 c0 -5 -5 -10 -11 -10 -5 0 -7 5 -4 10 3 6 8 10 11 10 2 0 4 -4 4 -10z
m1353 -30 c3 -11 1 -18 -4 -14 -5 3 -9 12 -9 20 0 20 7 17 13 -6z m-1609 -25
c-4 -8 -11 -12 -16 -9 -6 4 -5 10 3 15 19 12 19 11 13 -6z m-401 -139 c4 -10
1 -13 -8 -9 -8 3 -12 9 -9 14 7 12 11 11 17 -5z m-779 -438 c-3 -4 -9 -8 -15
-8 -5 0 -9 4 -9 8 0 5 7 9 15 9 8 0 12 -4 9 -9z m-172 -105 c-6 -2 -9 -10 -6
-15 4 -7 2 -8 -5 -4 -13 9 -5 26 12 25 9 0 8 -2 -1 -6z m2623 -53 c3 -5 1 -10
-4 -10 -6 0 -11 5 -11 10 0 6 2 10 4 10 3 0 8 -4 11 -10z m-32 -92 c-9 -10
-19 -15 -22 -12 -3 4 0 9 7 11 6 3 10 8 8 12 -3 4 1 8 9 8 13 0 12 -4 -2 -19z
m-2795 -43 c-3 -3 -9 2 -12 12 -6 14 -5 15 5 6 7 -7 10 -15 7 -18z m2672 -165
c0 -5 -2 -10 -4 -10 -3 0 -8 5 -11 10 -3 6 -1 10 4 10 6 0 11 -4 11 -10z
m-2155 -259 c3 -5 1 -12 -5 -16 -5 -3 -10 1 -10 9 0 18 6 21 15 7z m-385 -161
c0 -5 -5 -10 -11 -10 -5 0 -7 5 -4 10 3 6 8 10 11 10 2 0 4 -4 4 -10z m-760
-54 c0 -3 -4 -8 -10 -11 -5 -3 -10 -1 -10 4 0 6 5 11 10 11 6 0 10 -2 10 -4z
m570 -47 c0 8 3 12 6 8 10 -10 -6 -26 -21 -21 -8 4 -12 11 -9 16 4 6 10 5 15
-3 7 -12 9 -12 9 0z m-36 -31 c-3 -4 -11 -5 -19 -1 -21 7 -19 12 4 10 11 0 18
-5 15 -9z m-34 -12 c0 -2 -7 -7 -16 -10 -8 -3 -12 -2 -9 4 6 10 25 14 25 6z
m-142 -92 c-12 -12 -17 -13 -23 -3 -5 8 -4 10 4 5 6 -4 14 0 17 9 4 9 9 13 12
10 3 -3 -1 -13 -10 -21z m-103 -53 c3 -5 0 -13 -6 -17 -7 -4 -9 -3 -5 4 3 5 0
13 -6 15 -9 4 -10 6 -1 6 6 1 14 -3 18 -8z m-570 -381 c3 -6 -1 -7 -9 -4 -18
7 -21 14 -7 14 6 0 13 -4 16 -10z m-125 -94 c0 -3 -4 -8 -10 -11 -5 -3 -10 -1
-10 4 0 6 5 11 10 11 6 0 10 -2 10 -4z"/>
<path d="M4356 4381 c-3 -5 1 -11 9 -14 9 -4 12 -1 8 9 -6 16 -10 17 -17 5z"/>
<path d="M3815 4360 c-3 -5 -1 -10 4 -10 6 0 11 5 11 10 0 6 -2 10 -4 10 -3 0
-8 -4 -11 -10z"/>
<path d="M3640 4342 c0 -6 -8 -9 -17 -6 -15 5 -16 4 -3 -5 16 -11 40 3 27 16
-4 3 -7 1 -7 -5z"/>
<path d="M4774 4339 c-3 -6 -2 -15 3 -20 5 -5 9 -1 10 11 2 22 -2 25 -13 9z"/>
<path d="M4736 4332 c-3 -5 1 -9 9 -9 8 0 12 4 9 9 -3 4 -7 8 -9 8 -2 0 -6 -4
-9 -8z"/>
<path d="M826 4317 c3 -10 9 -15 12 -12 3 3 0 11 -7 18 -10 9 -11 8 -5 -6z"/>
<path d="M4935 4320 c-3 -5 -1 -10 4 -10 6 0 11 5 11 10 0 6 -2 10 -4 10 -3 0
-8 -4 -11 -10z"/>
<path d="M850 4299 c0 -5 5 -7 10 -4 6 3 10 8 10 11 0 2 -4 4 -10 4 -5 0 -10
-5 -10 -11z"/>
<path d="M670 4242 c6 -13 14 -21 18 -18 3 4 -2 14 -12 24 -18 16 -18 16 -6
-6z"/>
<path d="M3170 4240 c0 -5 5 -10 11 -10 5 0 7 5 4 10 -3 6 -8 10 -11 10 -2 0
-4 -4 -4 -10z"/>
<path d="M989 4223 c-13 -16 -12 -17 4 -4 9 7 17 15 17 17 0 8 -8 3 -21 -13z"/>
<path d="M1417 3983 c-4 -3 -7 -11 -7 -17 0 -6 5 -5 12 2 6 6 9 14 7 17 -3 3
-9 2 -12 -2z"/>
<path d="M863 3925 c0 -8 4 -12 9 -9 5 3 6 10 3 15 -9 13 -12 11 -12 -6z"/>
<path d="M870 3896 c0 -2 7 -7 16 -10 8 -3 12 -2 9 4 -6 10 -25 14 -25 6z"/>
<path d="M1485 3850 c-8 -13 3 -30 18 -30 7 0 6 4 -3 10 -13 9 -13 11 0 20 9
6 10 10 3 10 -6 0 -15 -4 -18 -10z"/>
<path d="M2271 3794 c0 -11 3 -14 6 -6 3 7 2 16 -1 19 -3 4 -6 -2 -5 -13z"/>
<path d="M4705 3751 c-3 -5 0 -13 6 -17 7 -4 9 -3 5 4 -3 5 0 13 6 15 9 4 10
6 1 6 -6 1 -14 -3 -18 -8z"/>
<path d="M1061 3564 c0 -11 3 -14 6 -6 3 7 2 16 -1 19 -3 4 -6 -2 -5 -13z"/>
<path d="M1110 3497 c8 -7 20 -18 26 -25 8 -10 11 -10 11 2 0 8 -12 19 -26 25
-22 10 -24 9 -11 -2z"/>
<path d="M1810 3481 c0 -7 -5 -9 -12 -5 -7 5 -8 3 -3 -5 5 -9 10 -10 18 -2 6
6 8 14 4 18 -4 3 -7 1 -7 -6z"/>
<path d="M1187 3399 c7 -7 15 -10 18 -7 3 3 -2 9 -12 12 -14 6 -15 5 -6 -5z"/>
<path d="M1456 3382 c-3 -5 1 -9 9 -9 8 0 12 4 9 9 -3 4 -7 8 -9 8 -2 0 -6 -4
-9 -8z"/>
<path d="M3735 3270 c-3 -5 -1 -10 4 -10 6 0 11 5 11 10 0 6 -2 10 -4 10 -3 0
-8 -4 -11 -10z"/>
<path d="M3770 3266 c7 -7 13 -7 20 0 6 6 3 10 -10 10 -13 0 -16 -4 -10 -10z"/>
<path d="M4478 3263 c7 -3 16 -2 19 1 4 3 -2 6 -13 5 -11 0 -14 -3 -6 -6z"/>
<path d="M3320 3240 c-9 -6 -10 -10 -3 -10 6 0 15 5 18 10 8 12 4 12 -15 0z"/>
<path d="M3440 3240 c-9 -6 -10 -10 -3 -10 6 0 15 5 18 10 8 12 4 12 -15 0z"/>
<path d="M1497 3199 c7 -7 15 -10 18 -7 3 3 -2 9 -12 12 -14 6 -15 5 -6 -5z"/>
<path d="M4356 3193 c-6 -14 -5 -15 5 -6 7 7 10 15 7 18 -3 3 -9 -2 -12 -12z"/>
<path d="M4390 3190 c-12 -7 -10 -9 7 -7 12 0 19 5 17 9 -6 10 -6 10 -24 -2z"/>
<path d="M2970 3175 c-11 -13 -10 -14 4 -9 9 3 16 10 16 15 0 13 -6 11 -20 -6z"/>
<path d="M3858 3038 c10 -13 10 -17 -3 -22 -9 -3 -13 -2 -10 3 3 5 1 13 -5 16
-6 4 -9 1 -8 -6 2 -7 -2 -13 -9 -14 -6 0 -15 -4 -20 -9 -4 -5 -3 -6 4 -2 6 3
14 2 18 -4 3 -5 -1 -10 -10 -10 -11 0 -15 -5 -12 -14 4 -10 1 -13 -8 -9 -8 3
-12 10 -8 16 3 6 1 7 -5 3 -9 -5 -9 -13 0 -29 10 -21 10 -21 -7 -7 -17 14 -17
14 -7 -7 15 -27 16 -44 2 -23 -9 13 -13 11 -30 -10 -11 -14 -24 -30 -28 -35
-5 -6 -7 -16 -5 -22 3 -7 -1 -20 -7 -30 -9 -16 -10 -15 -6 7 5 21 4 21 -8 -5
-8 -16 -12 -33 -10 -37 3 -4 -1 -5 -9 -2 -8 3 -17 -2 -20 -10 -4 -11 -1 -13
11 -10 15 5 15 4 -1 -6 -9 -6 -22 -8 -29 -4 -6 4 -8 3 -5 -4 10 -15 -3 -43
-16 -35 -6 4 -7 1 -2 -7 6 -10 12 -7 26 11 10 13 19 20 19 15 0 -4 -16 -23
-37 -42 -20 -18 -37 -41 -38 -51 -1 -10 -6 -26 -10 -36 -6 -14 -10 -15 -22 -6
-8 7 -13 8 -12 3 1 -5 -2 -24 -6 -42 -7 -29 -9 -31 -21 -15 -11 15 -12 13 -4
-20 5 -24 4 -39 -3 -44 -6 -3 -7 -1 -3 5 4 7 1 12 -9 12 -9 0 -14 -4 -10 -9 3
-5 -2 -16 -10 -24 -11 -12 -12 -17 -2 -20 6 -3 4 -6 -7 -6 -13 -1 -17 -6 -13
-20 3 -14 1 -18 -10 -14 -8 3 -12 12 -9 20 3 8 1 11 -4 8 -14 -9 -12 -21 6
-39 18 -19 11 -20 -19 -5 -18 9 -20 9 -9 -2 16 -17 15 -36 -2 -42 -11 -4 -13
-1 -10 11 4 14 3 13 -6 -2 -7 -10 -8 -21 -4 -25 5 -3 10 -13 12 -21 3 -12 1
-13 -9 -2 -19 18 -34 15 -18 -5 12 -14 12 -16 0 -8 -11 6 -13 4 -7 -10 5 -15
4 -16 -9 -5 -13 11 -16 11 -13 -1 2 -8 -3 -13 -10 -11 -8 1 -11 -2 -8 -7 4 -5
-2 -17 -11 -27 -16 -16 -16 -16 6 -9 21 6 22 5 10 -7 -7 -8 -23 -13 -34 -11
-11 2 -14 1 -7 -3 18 -9 15 -27 -4 -20 -13 5 -14 3 -6 -6 11 -13 -6 -48 -23
-48 -5 0 0 9 10 20 10 11 13 20 7 20 -15 0 -31 -31 -24 -49 3 -9 0 -12 -10 -8
-11 4 -15 -1 -15 -16 -1 -42 -3 -49 -16 -44 -9 3 -12 -4 -11 -23 1 -21 -2 -27
-12 -23 -9 3 -14 -1 -14 -12 0 -9 4 -14 8 -11 4 2 8 -5 9 -17 0 -12 -1 -16 -4
-9 -3 6 -12 12 -20 12 -12 0 -13 -3 -3 -15 10 -12 8 -14 -7 -10 -12 2 -20 -2
-20 -10 0 -8 3 -12 7 -10 4 2 7 -2 7 -10 0 -10 -5 -11 -19 -4 -10 5 -18 6 -17
2 4 -23 -2 -43 -11 -38 -5 3 -7 0 -4 -9 3 -8 -3 -19 -15 -26 -12 -6 -21 -16
-21 -22 0 -6 7 -5 18 3 15 13 16 12 3 -4 -8 -10 -20 -16 -27 -13 -8 3 -11 0
-7 -10 4 -10 0 -13 -13 -8 -18 6 -18 6 0 -8 15 -12 16 -17 6 -23 -9 -6 -11 -4
-5 5 5 9 4 11 -3 6 -7 -4 -12 -14 -12 -23 0 -8 -6 -13 -13 -10 -8 3 -14 -1
-14 -9 0 -7 3 -11 7 -9 4 2 7 -2 7 -9 0 -9 -9 -13 -26 -11 -14 2 -20 2 -13 -1
6 -3 12 -10 12 -15 0 -6 -6 -7 -12 -3 -9 5 -9 2 1 -9 12 -15 11 -17 -5 -17
-16 0 -17 -2 -4 -10 12 -8 11 -10 -7 -10 -15 0 -21 -5 -17 -14 4 -11 0 -13
-18 -9 -21 6 -22 5 -8 -13 14 -19 14 -19 -8 0 -22 19 -30 32 -13 22 5 -3 12 1
15 10 4 10 2 13 -6 8 -7 -5 -9 -2 -5 9 4 12 1 15 -14 12 -17 -3 -20 1 -17 21
2 18 -5 29 -27 44 -32 21 -28 27 8 9 21 -10 21 -10 3 5 -11 9 -24 16 -29 16
-4 0 -5 5 -1 12 5 8 1 9 -12 5 -18 -7 -18 -6 1 9 20 16 20 16 -2 9 -18 -5 -22
-3 -17 9 4 10 0 18 -10 22 -9 3 -16 14 -16 23 0 14 -2 14 -10 1 -5 -8 -10 -10
-10 -4 0 5 5 15 11 21 8 8 5 16 -11 30 -56 47 -62 55 -63 91 0 8 -8 10 -21 6
-12 -3 -16 -2 -10 3 6 4 13 16 17 25 4 12 2 15 -9 11 -9 -3 -14 1 -14 15 0 11
-8 26 -17 33 -15 11 -16 11 -5 -1 6 -8 12 -18 12 -24 0 -5 -6 -1 -14 10 -13
17 -12 21 2 38 16 18 16 18 -5 7 -30 -16 -38 -14 -22 6 10 11 10 14 2 9 -7 -4
-13 -2 -13 4 0 6 -12 22 -27 36 -16 14 -23 23 -18 20 6 -2 11 5 12 17 0 12 -1
16 -4 10 -3 -7 -12 -13 -20 -13 -12 0 -13 3 -3 15 10 12 8 14 -9 10 -17 -3
-19 -1 -11 20 10 26 5 35 -22 35 -13 0 -18 7 -18 25 0 14 5 25 12 25 6 0 8 3
5 6 -4 4 -14 1 -22 -6 -9 -7 -15 -9 -14 -4 4 22 -2 35 -13 28 -7 -5 -8 -3 -4
5 5 7 14 10 20 8 7 -3 13 1 13 7 0 8 -10 12 -24 10 -18 -2 -22 1 -14 10 11 14
5 26 -13 26 -6 0 -4 -5 4 -10 8 -5 10 -10 4 -10 -6 0 -18 8 -25 17 -10 11 -10
14 -1 9 7 -4 12 -2 12 4 0 6 5 8 10 5 16 -10 11 1 -7 16 -11 10 -14 10 -9 2 4
-7 2 -13 -3 -13 -6 0 -11 7 -11 16 0 8 -4 13 -9 10 -5 -3 -12 1 -15 10 -3 8
-2 13 3 9 8 -4 8 16 1 35 -1 3 -2 9 -1 14 1 5 -5 6 -14 3 -8 -4 -15 -2 -15 4
0 6 -4 8 -9 5 -5 -4 -7 3 -4 14 3 12 0 20 -6 20 -7 0 -9 -6 -5 -12 5 -10 3
-10 -7 0 -17 15 -19 54 -4 65 5 4 -2 5 -16 3 -23 -4 -26 -1 -21 17 4 16 2 19
-11 14 -9 -3 -16 -3 -16 1 3 20 -3 23 -18 11 -15 -13 -15 -12 -3 8 8 12 17 20
21 17 4 -2 10 0 13 5 4 5 -2 8 -11 6 -10 -1 -23 2 -29 6 -7 6 -17 3 -25 -8
-12 -14 -12 -16 0 -8 10 5 12 4 7 -4 -5 -8 -12 -9 -19 -2 -13 10 -61 -22 -49
-33 3 -4 -6 -3 -20 3 -15 6 -30 7 -32 2 -8 -13 4 -20 22 -14 10 4 14 3 11 -1
-4 -4 -19 -9 -34 -12 -20 -3 -25 -1 -19 8 5 9 3 9 -10 -1 -13 -11 -14 -16 -4
-24 10 -6 9 -7 -4 -4 -9 3 -28 -3 -41 -13 -22 -17 -26 -18 -37 -5 -13 16 -35
10 -24 -6 3 -5 10 -7 15 -4 5 4 9 1 9 -4 0 -6 -12 -11 -26 -11 -14 0 -23 -4
-20 -8 2 -4 -7 -9 -21 -10 -33 -3 -45 -11 -37 -25 4 -7 4 -9 -1 -5 -4 4 -14 3
-22 -3 -9 -8 -17 -8 -26 0 -10 8 -14 7 -14 -4 0 -8 4 -15 9 -15 4 0 6 -15 4
-34 -3 -25 -1 -33 11 -32 8 0 22 -9 30 -22 15 -21 14 -22 -3 -16 -11 3 -4 -4
15 -16 27 -17 31 -24 20 -31 -8 -5 -10 -9 -5 -9 5 0 2 -8 -5 -17 -12 -16 -11
-16 8 0 16 14 23 15 29 6 4 -8 3 -10 -4 -5 -7 4 -12 3 -12 -2 0 -5 9 -12 20
-15 13 -3 18 -11 14 -20 -3 -8 0 -18 7 -23 8 -5 10 -3 4 6 -5 9 -4 11 4 6 9
-6 9 -11 0 -22 -10 -12 -9 -13 4 -9 18 8 32 -11 16 -21 -8 -4 -9 -3 -5 4 5 8
1 10 -10 5 -15 -6 -15 -7 1 -15 9 -5 23 -7 32 -4 14 6 14 4 2 -11 -12 -15 -12
-16 3 -10 13 4 15 2 11 -10 -4 -10 -2 -14 4 -10 6 4 14 0 17 -9 4 -10 2 -13
-7 -9 -6 4 -4 0 5 -8 10 -8 18 -19 18 -25 0 -6 6 -13 13 -15 9 -4 9 -8 -1 -15
-11 -7 -11 -10 3 -16 9 -3 13 -11 9 -17 -4 -8 -3 -9 5 -5 9 6 9 11 0 22 -6 8
-8 14 -4 14 4 0 14 -8 21 -17 9 -14 10 -21 1 -32 -10 -12 -9 -14 5 -9 22 9 30
-2 15 -20 -9 -13 -9 -14 1 -8 7 4 12 2 12 -6 0 -9 3 -9 10 2 5 8 10 10 10 4 0
-6 -3 -14 -7 -18 -9 -9 -13 -36 -5 -35 21 3 32 -3 32 -17 0 -9 5 -12 12 -8 7
5 8 3 3 -6 -5 -8 -2 -18 9 -25 9 -7 18 -26 19 -43 1 -16 5 -28 10 -25 4 2 7
-1 7 -6 0 -6 7 -11 15 -11 8 0 15 -5 15 -11 0 -5 -4 -7 -10 -4 -6 4 -7 -1 -3
-11 6 -15 7 -15 21 2 13 18 14 18 7 -5 -6 -20 -4 -23 9 -18 10 4 15 3 11 -2
-3 -5 1 -12 7 -15 7 -3 2 -3 -12 0 -23 5 -24 4 -5 -7 30 -19 45 -36 45 -51 0
-10 -3 -9 -10 2 -5 8 -10 10 -10 4 0 -6 9 -19 20 -29 11 -10 17 -22 14 -26 -3
-5 2 -6 10 -3 14 5 18 0 15 -22 -1 -9 35 -33 43 -28 4 2 3 -10 -2 -27 -8 -28
-7 -29 7 -17 15 11 16 10 11 -10 -5 -19 -4 -21 8 -11 12 10 13 9 8 -5 -3 -9
-11 -16 -17 -16 -6 0 -7 -3 -4 -6 4 -4 13 -1 22 6 13 11 14 10 9 -4 -4 -11 0
-22 11 -30 12 -9 16 -20 12 -32 -7 -18 -6 -18 8 0 8 11 15 15 15 9 0 -7 -8
-19 -17 -29 -16 -16 -16 -16 6 -9 18 5 22 4 16 -6 -6 -9 -3 -11 9 -6 9 4 15 3
12 -2 -3 -5 8 -26 24 -46 17 -21 30 -41 30 -44 0 -3 -7 3 -15 13 -8 11 -15 15
-15 9 0 -7 7 -18 15 -26 8 -8 12 -17 9 -20 -3 -3 3 -8 14 -11 23 -8 35 -30 40
-74 1 -7 7 -10 12 -7 6 3 10 1 10 -5 0 -6 4 -9 8 -6 4 2 9 -5 9 -17 1 -12 7
-23 12 -25 5 -2 8 -9 5 -16 -3 -7 8 -22 24 -35 22 -16 28 -28 24 -46 -2 -14 0
-25 7 -25 5 0 8 6 5 14 -3 8 0 17 7 22 8 4 10 3 5 -5 -4 -6 -2 -19 6 -28 9
-12 9 -15 1 -9 -17 10 -16 -2 1 -19 7 -8 17 -11 22 -7 5 4 2 -2 -6 -12 -14
-18 -13 -19 2 -13 10 3 20 1 24 -5 4 -7 3 -8 -4 -4 -7 4 -12 2 -12 -3 0 -10
14 -15 33 -12 5 1 6 -3 2 -9 -3 -6 -11 -8 -16 -5 -5 3 -6 -1 -3 -10 4 -9 13
-14 20 -11 19 7 27 -11 9 -21 -13 -8 -12 -11 9 -22 14 -8 22 -19 19 -27 -4
-10 0 -12 13 -7 11 4 15 3 11 -4 -9 -14 2 -43 15 -43 5 0 6 6 2 13 -6 9 -4 9
8 -1 9 -7 15 -22 13 -33 -2 -10 0 -19 5 -19 5 0 7 -6 4 -14 -9 -23 12 -27 31
-6 10 11 24 16 33 13 10 -4 14 -3 11 1 -4 4 -16 9 -28 11 -15 3 -19 0 -14 -8
4 -7 0 -6 -10 2 -22 17 -21 21 3 16 29 -6 69 30 65 60 -1 14 4 30 11 36 8 6
11 15 9 20 -3 4 4 6 15 4 17 -3 19 -1 10 15 -14 26 -13 37 3 19 6 -8 11 -12
10 -10 -2 2 5 10 15 18 9 8 11 12 5 8 -7 -3 -13 -1 -13 4 0 10 14 15 32 12 4
0 4 7 1 16 -4 10 -2 14 5 9 6 -3 14 -1 18 5 4 7 3 9 -4 5 -6 -4 -10 1 -9 13 1
14 5 17 13 10 8 -7 15 -6 20 2 4 8 3 9 -4 5 -11 -6 -13 -1 -11 22 0 4 8 5 17
4 14 -3 14 -2 1 14 -8 11 -9 15 -1 10 7 -4 12 -2 12 4 0 6 4 9 9 6 5 -4 7 4 3
16 -4 16 -2 20 9 16 10 -4 15 1 16 13 1 12 -3 17 -9 13 -7 -5 -8 -2 -4 5 5 7
15 10 23 7 8 -3 11 -2 8 3 -3 5 -1 12 5 16 5 3 10 12 10 18 0 7 -4 6 -10 -3
-5 -8 -10 -10 -10 -4 0 5 9 20 20 32 21 22 27 37 11 27 -5 -3 -13 0 -17 6 -4
8 -3 9 4 5 6 -3 16 3 22 14 10 18 14 19 27 8 14 -12 15 -11 5 9 -11 19 -9 21
11 16 22 -5 22 -5 2 10 -20 16 -20 16 2 12 16 -3 20 0 16 11 -3 7 -10 11 -16
7 -6 -3 -7 -1 -3 6 6 9 11 9 24 -1 14 -12 14 -10 2 12 -12 22 -12 24 2 12 13
-10 18 -10 24 -1 4 8 3 9 -4 5 -7 -4 -12 -1 -12 9 0 9 5 13 10 10 6 -3 10 -2
10 4 0 5 -6 12 -12 15 -7 3 -2 4 11 3 14 -1 26 4 28 13 4 12 3 12 -5 2 -8 -11
-10 -11 -15 1 -4 11 0 14 17 13 18 -2 22 2 20 25 -1 16 1 28 5 27 18 -2 31 3
31 13 0 5 -5 7 -12 3 -7 -4 -8 -3 -4 5 4 6 12 9 17 5 6 -3 9 2 7 12 -2 11 2
18 10 17 6 -2 12 2 12 8 0 5 6 7 13 4 6 -4 4 0 -6 8 -16 13 -16 15 -2 21 9 3
13 2 10 -4 -3 -6 -1 -10 4 -10 15 0 14 27 -1 32 -7 3 -5 7 6 11 9 4 15 3 11
-2 -3 -5 -1 -13 5 -16 6 -4 10 -3 9 2 -4 21 2 34 13 27 7 -4 8 -3 4 4 -4 6
-12 10 -19 8 -7 -1 -9 -1 -4 1 4 3 5 9 2 13 -3 5 3 7 14 5 15 -3 18 1 14 18
-4 18 -3 19 6 7 9 -13 11 -13 11 0 0 9 6 22 13 29 6 6 12 16 12 20 0 4 14 20
30 35 17 15 25 25 19 22 -7 -3 -15 1 -18 10 -3 8 -2 12 4 9 9 -6 15 9 11 29
-1 5 5 3 14 -4 13 -11 14 -10 9 5 -5 12 -4 16 4 11 6 -3 13 -2 16 3 4 5 1 13
-5 17 -8 5 -9 3 -4 -6 5 -9 4 -11 -4 -6 -16 10 -3 27 17 24 12 -2 16 3 14 16
-2 10 1 15 7 11 7 -4 8 0 4 11 -5 13 -3 15 8 9 11 -7 11 -5 -1 10 -9 11 -10
16 -2 11 11 -7 17 5 13 27 -1 4 6 10 14 13 8 3 12 11 8 17 -3 6 -1 7 5 3 7 -4
12 -1 12 9 0 11 5 15 14 12 11 -4 13 1 10 19 -3 17 0 24 11 24 10 0 13 -5 9
-12 -4 -7 -3 -9 1 -5 11 10 16 39 6 32 -4 -2 -8 2 -8 9 0 8 6 12 14 9 9 -4 11
0 6 12 -5 15 -2 17 15 13 15 -4 20 -3 15 5 -4 7 -8 18 -9 25 -2 11 0 11 13 0
15 -12 15 -10 4 11 -8 15 -9 21 -2 17 6 -4 11 -2 11 3 0 6 8 11 18 12 11 0 12
2 4 6 -16 6 3 33 24 33 8 0 14 6 15 13 1 24 8 49 14 55 3 4 3 -9 0 -28 -3 -19
-3 -32 0 -28 3 3 8 18 11 34 10 66 14 73 31 67 12 -5 14 -3 7 8 -14 23 -13 39
3 39 13 0 13 -3 2 -17 -11 -15 -11 -16 1 -6 20 18 22 46 4 39 -9 -3 -12 -1 -9
4 3 6 13 10 21 10 8 0 14 7 14 16 0 8 5 12 10 9 6 -3 10 -1 10 5 0 6 5 8 11 4
7 -4 7 1 -1 16 -10 18 -9 25 8 40 11 10 24 16 28 12 5 -4 3 0 -3 9 -10 12 -8
19 8 32 11 10 17 22 14 27 -3 5 3 7 15 5 11 -2 23 1 26 7 4 6 3 8 -3 5 -11 -7
-28 22 -18 31 3 3 5 0 5 -7 0 -8 5 -7 16 4 9 9 13 23 10 32 -6 16 -5 16 12 0
15 -14 19 -14 19 -2 0 8 -4 12 -9 9 -4 -3 -8 2 -8 11 0 11 5 15 16 11 8 -3 13
-2 9 3 -3 5 1 12 7 14 9 4 8 6 -2 6 -9 1 -5 6 10 14 18 9 25 20 24 40 -1 22 1
25 13 16 11 -10 12 -8 6 6 -5 15 -3 17 12 12 13 -6 15 -4 8 5 -16 22 -1 64 18
52 6 -3 9 1 7 9 -2 9 6 23 17 32 20 15 20 16 -2 13 -12 -2 -22 1 -22 6 1 5 -6
13 -15 18 -9 5 -13 14 -10 20 4 7 2 8 -5 4 -9 -6 -9 -11 0 -22 13 -16 1 -18
-21 -4 -8 5 -10 10 -5 11 6 0 -1 4 -15 8 -14 4 -31 3 -37 -2 -9 -7 -13 -5 -13
7 0 10 -5 14 -10 11 -6 -4 -8 -11 -5 -16 3 -5 -1 -6 -9 -3 -9 3 -16 11 -16 18
0 6 -5 4 -10 -4 -8 -12 -10 -12 -10 -1 0 11 -3 11 -17 0 -9 -8 -14 -9 -10 -3
13 22 -67 41 -92 22 -13 -10 -14 -10 -3 2 17 20 15 35 -3 20 -10 -9 -15 -9
-15 -1 0 6 -5 11 -11 11 -5 0 -7 -5 -3 -12 9 -14 -7 -5 -56 31 -19 14 -29 18
-22 9z m187 -78 c3 -6 -1 -7 -9 -4 -18 7 -21 14 -7 14 6 0 13 -4 16 -10z m159
-36 c3 -8 2 -12 -4 -9 -6 3 -10 10 -10 16 0 14 7 11 14 -7z m-454 -38 c0 -3
-4 -8 -10 -11 -5 -3 -10 -1 -10 4 0 6 5 11 10 11 6 0 10 -2 10 -4z m460 -140
c0 -3 -4 -8 -10 -11 -5 -3 -10 -1 -10 4 0 6 5 11 10 11 6 0 10 -2 10 -4z
m-667 -181 c-3 -9 -8 -14 -10 -11 -3 3 -2 9 2 15 9 16 15 13 8 -4z m-1198 -65
c3 -5 1 -10 -4 -10 -6 0 -11 5 -11 10 0 6 2 10 4 10 3 0 8 -4 11 -10z m145
-244 c0 -3 -4 -8 -10 -11 -5 -3 -10 -1 -10 4 0 6 5 11 10 11 6 0 10 -2 10 -4z
m860 0 c0 -2 -7 -7 -16 -10 -8 -3 -12 -2 -9 4 6 10 25 14 25 6z m-625 -376
c16 -17 16 -20 3 -15 -9 4 -19 13 -22 21 -7 19 -2 18 19 -6z m-518 -45 c0 -8
-4 -12 -9 -9 -5 3 -6 10 -3 15 9 13 12 11 12 -6z m1378 -74 c3 -5 1 -12 -5
-16 -5 -3 -10 1 -10 9 0 18 6 21 15 7z m-41 -47 c3 -8 2 -12 -4 -9 -6 3 -10
10 -10 16 0 14 7 11 14 -7z m-1239 -33 c-3 -6 3 -14 12 -20 10 -6 13 -11 7
-11 -15 0 -36 25 -27 33 10 10 15 8 8 -2z m756 -734 c-10 -9 -11 -8 -5 6 3 10
9 15 12 12 3 -3 0 -11 -7 -18z m-231 -81 c0 -11 -19 -15 -25 -6 -3 5 1 10 9
10 9 0 16 -2 16 -4z m143 -70 c7 -18 -18 -42 -28 -26 -4 6 -1 9 7 8 8 -2 12 4
10 15 -3 21 4 23 11 3z m-53 -80 c0 -3 -4 -8 -10 -11 -5 -3 -10 -1 -10 4 0 6
5 11 10 11 6 0 10 -2 10 -4z"/>
<path d="M3910 3018 c0 -4 4 -8 9 -8 6 0 12 4 15 8 3 5 -1 9 -9 9 -8 0 -15 -4
-15 -9z"/>
<path d="M1180 2850 c-9 -6 -10 -10 -3 -10 6 0 15 5 18 10 8 12 4 12 -15 0z"/>
<path d="M4254 2839 c-4 -7 -3 -9 4 -5 5 3 13 0 15 -6 4 -9 6 -10 6 -1 1 17
-16 25 -25 12z"/>
<path d="M3546 2618 c3 -5 10 -6 15 -3 13 9 11 12 -6 12 -8 0 -12 -4 -9 -9z"/>
<path d="M1561 2604 c0 -11 3 -14 6 -6 3 7 2 16 -1 19 -3 4 -6 -2 -5 -13z"/>
<path d="M1953 2605 c0 -8 4 -12 9 -9 5 3 6 10 3 15 -9 13 -12 11 -12 -6z"/>
<path d="M1530 2579 c0 -5 5 -7 10 -4 6 3 10 8 10 11 0 2 -4 4 -10 4 -5 0 -10
-5 -10 -11z"/>
<path d="M4090 2559 c0 -5 5 -7 10 -4 6 3 10 8 10 11 0 2 -4 4 -10 4 -5 0 -10
-5 -10 -11z"/>
<path d="M1810 2541 c0 -7 -5 -9 -12 -5 -7 5 -8 3 -3 -5 5 -9 10 -10 18 -2 6
6 8 14 4 18 -4 3 -7 1 -7 -6z"/>
<path d="M917 2521 c-4 -17 -3 -21 5 -13 5 5 8 16 6 23 -3 8 -7 3 -11 -10z"/>
<path d="M1413 2524 c-3 -8 -1 -20 5 -26 8 -8 9 -4 5 12 -5 17 -3 21 7 15 9
-5 11 -4 6 3 -10 16 -15 15 -23 -4z"/>
<path d="M3475 2520 c-3 -5 -1 -10 4 -10 6 0 11 5 11 10 0 6 -2 10 -4 10 -3 0
-8 -4 -11 -10z"/>
<path d="M280 2478 c0 -4 5 -9 10 -9 6 -1 14 -2 19 -3 5 0 13 -5 18 -10 5 -5
-4 -6 -20 -2 -26 6 -27 5 -17 -13 8 -16 8 -19 -2 -16 -9 4 -13 -5 -14 -25 -1
-19 3 -27 10 -23 6 4 5 -1 -3 -11 -13 -15 -13 -19 0 -27 11 -6 8 -9 -11 -9
-20 0 -22 -2 -10 -10 8 -5 11 -10 6 -10 -5 0 -2 -8 5 -17 10 -11 10 -14 2 -9
-20 11 -35 -3 -24 -22 6 -11 4 -20 -7 -30 -10 -7 -11 -11 -4 -7 15 7 16 -11 2
-20 -8 -5 -7 -12 2 -22 15 -19 15 -23 -4 -34 -11 -7 -10 -11 2 -19 13 -8 13
-10 -2 -10 -11 0 -15 -5 -12 -15 4 -8 10 -12 15 -9 5 3 4 -6 -2 -20 -7 -14
-17 -22 -23 -19 -6 4 -3 -3 7 -14 14 -16 15 -23 6 -29 -7 -4 -10 -3 -5 4 3 6
1 14 -5 18 -8 5 -10 -3 -7 -25 3 -18 0 -31 -6 -31 -6 0 -4 -5 4 -10 8 -5 10
-10 4 -10 -6 0 -9 -13 -6 -31 3 -19 1 -29 -5 -26 -5 3 -10 0 -10 -8 0 -8 4
-12 9 -9 4 3 6 -5 4 -18 -3 -13 -5 -27 -5 -31 -1 -5 -5 -6 -10 -2 -5 3 -13 0
-17 -6 -4 -8 -3 -9 4 -5 7 4 12 1 12 -9 0 -10 5 -14 12 -9 10 5 10 3 0 -7 -11
-12 -14 -12 -22 1 -8 13 -10 12 -10 -2 0 -10 4 -18 8 -18 4 0 8 -11 8 -24 0
-13 -5 -22 -11 -20 -6 3 -10 -12 -10 -35 0 -23 4 -37 11 -34 6 2 11 -3 11 -11
0 -8 -7 -12 -16 -9 -11 3 -11 1 2 -7 14 -9 22 -9 34 2 9 7 14 8 10 2 -9 -15
11 -23 51 -19 17 1 29 -1 27 -6 -3 -4 -14 -6 -25 -4 -13 3 -17 -1 -13 -12 5
-12 7 -12 14 -1 7 10 9 10 9 -2 0 -13 1 -13 10 0 7 10 12 12 18 4 8 -13 44
-15 36 -2 -3 5 -10 5 -16 2 -7 -4 -8 -2 -4 4 9 15 56 -18 49 -33 -2 -5 3 -1
11 9 14 18 21 15 17 -7 -1 -5 3 -6 8 -3 5 4 13 1 16 -5 4 -5 13 -8 20 -5 8 3
16 1 19 -5 2 -5 3 -4 2 3 -2 7 -10 12 -18 10 -9 -1 -19 5 -22 14 -5 13 -4 14
7 6 10 -9 17 -8 26 1 10 9 12 9 9 -3 -2 -9 5 -15 17 -16 41 -2 46 -4 39 -16
-5 -9 -2 -9 9 1 15 12 17 11 17 -4 0 -12 5 -15 16 -11 9 3 20 6 25 6 6 0 7 6
3 13 -4 6 2 4 13 -6 11 -9 23 -14 28 -10 4 5 5 2 1 -4 -4 -7 -2 -13 4 -13 6 0
8 -5 4 -12 -4 -7 -3 -8 5 -4 6 4 9 11 6 16 -3 5 -1 11 4 14 5 4 13 2 16 -4 5
-8 12 -7 23 2 15 11 15 11 6 -2 -9 -12 -8 -18 4 -30 14 -13 15 -12 9 3 -3 9
-2 17 3 17 6 0 10 -4 10 -9 0 -5 9 -11 20 -14 11 -3 18 -1 15 3 -3 5 0 12 7
16 7 4 10 4 6 -1 -4 -4 -3 -14 3 -22 9 -10 8 -13 0 -13 -7 0 -9 -5 -5 -11 5
-8 9 -8 14 1 5 7 17 10 30 7 16 -4 19 -2 11 7 -8 9 -7 13 4 13 8 0 12 -3 10
-7 -2 -3 0 -12 6 -20 6 -10 9 -11 9 -2 0 6 7 12 15 12 8 0 15 -4 15 -8 0 -5
12 -14 27 -21 23 -10 25 -10 14 3 -9 11 -9 16 1 22 7 4 10 4 6 -1 -4 -4 -1
-14 7 -21 16 -16 29 -19 20 -4 -3 6 -1 10 4 10 6 0 11 -4 11 -8 0 -4 9 -8 19
-8 19 0 19 1 3 17 -9 9 -21 14 -27 11 -5 -3 -3 3 5 13 14 17 13 18 -2 12 -10
-3 -20 -2 -23 4 -4 5 -10 7 -15 4 -13 -8 -6 21 10 41 13 17 13 18 -1 7 -12
-10 -18 -9 -29 7 -7 10 -18 16 -22 13 -5 -3 -8 1 -6 9 4 17 -37 58 -49 48 -4
-5 -17 -2 -27 6 -11 8 -15 14 -10 14 6 0 16 -6 23 -12 10 -11 11 -10 6 5 -4 9
-16 17 -26 17 -10 0 -19 5 -19 11 0 5 -6 7 -12 3 -8 -5 -7 0 2 11 12 15 12 17
1 10 -10 -6 -13 -4 -9 6 4 10 -1 15 -13 16 -10 1 -19 -3 -19 -9 0 -6 -3 -8 -6
-5 -4 4 -1 13 6 22 15 18 7 19 -21 5 -11 -6 -18 -7 -17 -2 4 13 -59 82 -67 74
-4 -4 -4 4 0 18 7 24 7 24 -9 5 -12 -14 -14 -15 -10 -4 3 10 0 20 -5 24 -6 3
-9 10 -6 15 3 4 -4 6 -16 3 -19 -5 -20 -3 -14 18 7 24 7 24 -9 4 -9 -11 -15
-15 -14 -10 1 6 -3 20 -10 33 -7 12 -10 22 -6 22 3 0 1 7 -6 15 -10 12 -16 13
-26 4 -9 -7 -14 -8 -14 -1 0 6 6 13 13 16 9 5 9 7 0 12 -10 4 -10 11 -1 27 10
21 10 21 -7 7 -17 -14 -18 -14 -6 8 9 17 9 22 0 20 -6 -2 -14 3 -16 10 -3 8 1
10 14 5 12 -5 9 2 -9 19 -27 25 -38 45 -18 33 6 -3 10 -1 10 4 0 6 -5 11 -11
11 -5 0 -8 4 -4 9 3 5 0 13 -6 17 -7 4 -9 3 -5 -4 3 -6 1 -14 -6 -18 -7 -4
-10 -4 -6 1 4 4 1 20 -7 36 -21 39 -19 46 5 18 l20 -24 -13 27 c-6 16 -16 28
-20 28 -4 0 -3 9 3 20 6 11 7 20 3 19 -19 -3 -33 2 -33 12 0 6 8 8 18 5 15 -5
15 -4 -2 8 -10 8 -15 20 -11 26 4 7 -2 14 -14 17 -20 5 -20 7 -5 18 14 9 14
14 4 20 -9 5 -11 4 -6 -3 4 -7 2 -12 -3 -12 -10 0 -15 14 -12 33 0 4 -3 7 -9
7 -5 0 -6 7 -3 17 5 12 3 14 -8 8 -11 -7 -11 -5 1 10 9 11 10 16 3 11 -7 -4
-13 -3 -13 1 0 5 6 15 13 22 10 10 9 12 -3 9 -8 -2 -14 2 -13 8 1 5 -9 10 -23
10 -13 0 -24 -4 -24 -8z m105 -187 c3 -5 2 -12 -3 -15 -5 -3 -9 1 -9 9 0 17 3
19 12 6z m80 -210 c3 -5 2 -12 -3 -15 -5 -3 -9 1 -9 9 0 17 3 19 12 6z m419
-483 c-3 -5 -12 -2 -20 6 -20 21 -17 28 5 14 11 -7 17 -16 15 -20z"/>
<path d="M4030 2482 c0 -5 7 -9 15 -9 8 0 12 4 9 9 -3 4 -9 8 -15 8 -5 0 -9
-4 -9 -8z"/>
<path d="M1885 2289 c-4 -6 -5 -12 -2 -15 2 -3 7 2 10 11 7 17 1 20 -8 4z"/>
<path d="M3875 2200 c3 -5 8 -10 11 -10 2 0 4 5 4 10 0 6 -5 10 -11 10 -5 0
-7 -4 -4 -10z"/>
<path d="M219 2163 c-13 -16 -12 -17 4 -4 9 7 17 15 17 17 0 8 -8 3 -21 -13z"/>
<path d="M866 2164 c-11 -8 -16 -14 -10 -14 13 0 39 18 34 24 -3 2 -14 -2 -24
-10z"/>
<path d="M2550 2171 c0 -6 4 -13 10 -16 6 -3 7 1 4 9 -7 18 -14 21 -14 7z"/>
<path d="M675 2160 c-3 -5 -1 -10 4 -10 6 0 11 5 11 10 0 6 -2 10 -4 10 -3 0
-8 -4 -11 -10z"/>
<path d="M216 2087 c3 -10 9 -15 12 -12 3 3 0 11 -7 18 -10 9 -11 8 -5 -6z"/>
<path d="M2690 1942 c6 -13 14 -21 18 -18 3 4 -2 14 -12 24 -18 16 -18 16 -6
-6z"/>
<path d="M3700 1919 c0 -5 5 -7 10 -4 6 3 10 8 10 11 0 2 -4 4 -10 4 -5 0 -10
-5 -10 -11z"/>
<path d="M175 1860 c-3 -5 -1 -10 4 -10 6 0 11 5 11 10 0 6 -2 10 -4 10 -3 0
-8 -4 -11 -10z"/>
<path d="M668 1803 c7 -3 16 -2 19 1 4 3 -2 6 -13 5 -11 0 -14 -3 -6 -6z"/>
<path d="M695 1770 c15 -17 35 -19 35 -4 0 3 -5 2 -10 -1 -6 -3 -13 1 -16 9
-3 9 -11 16 -17 16 -5 0 -2 -9 8 -20z"/>
<path d="M156 1762 c-3 -5 1 -9 9 -9 8 0 12 4 9 9 -3 4 -7 8 -9 8 -2 0 -6 -4
-9 -8z"/>
<path d="M2334 1579 c-4 -7 -3 -9 4 -5 6 3 13 -2 15 -11 4 -16 5 -16 6 -1 1
21 -15 32 -25 17z"/>
<path d="M485 1560 c-3 -6 1 -7 9 -4 18 7 21 14 7 14 -6 0 -13 -4 -16 -10z"/>
<path d="M596 1542 c-2 -4 -1 -14 3 -21 6 -9 11 -10 15 -2 4 6 2 11 -4 11 -6
0 -8 5 -5 10 3 6 4 10 1 10 -3 0 -7 -4 -10 -8z"/>
<path d="M666 1527 c3 -10 9 -15 12 -12 3 3 0 11 -7 18 -10 9 -11 8 -5 -6z"/>
<path d="M947 1529 c7 -7 15 -10 18 -7 3 3 -2 9 -12 12 -14 6 -15 5 -6 -5z"/>
<path d="M2415 1449 c-4 -6 -5 -12 -2 -15 2 -3 7 2 10 11 7 17 1 20 -8 4z"/>
<path d="M3385 1449 c-4 -6 -5 -12 -2 -15 2 -3 7 2 10 11 7 17 1 20 -8 4z"/>
<path d="M2473 1361 c0 -11 4 -18 8 -15 4 2 9 -2 12 -8 2 -7 7 -11 10 -8 3 3
-3 15 -13 28 -17 21 -19 21 -17 3z"/>
<path d="M2550 1241 c0 -5 7 -12 16 -15 14 -5 15 -4 4 9 -14 17 -20 19 -20 6z"/>
<path d="M3237 1235 c-4 -8 -3 -16 1 -19 4 -3 9 4 9 15 2 23 -3 25 -10 4z"/>
<path d="M2665 1051 c-3 -5 0 -13 6 -17 7 -4 9 -3 5 4 -3 5 0 13 6 15 9 4 10
6 1 6 -6 1 -14 -3 -18 -8z"/>
<path d="M3001 837 c-8 -10 -7 -14 4 -14 8 0 12 4 9 8 -2 4 2 10 8 12 8 4 9 6
2 6 -6 1 -17 -5 -23 -12z"/>
<path d="M2865 759 c-4 -6 -5 -12 -2 -15 2 -3 7 2 10 11 7 17 1 20 -8 4z"/>
</g>
</svg>
